<svg width="14" height="14" viewBox="0 0 14 14" fill="none" xmlns="http://www.w3.org/2000/svg">
  <path d="M6.98962 9.92843C6.86242 9.92859 6.73665 9.90161 6.62071 9.84931C6.50477 9.797 6.40131 9.72057 6.31726 9.62511L2.50203 5.2884C2.38144 5.14469 2.32186 4.95951 2.33604 4.77245C2.35021 4.58539 2.43701 4.4113 2.57788 4.2874C2.71874 4.1635 2.90248 4.09963 3.08983 4.10945C3.27717 4.11927 3.45323 4.202 3.58037 4.33994L6.91651 8.13223C6.92563 8.14263 6.93687 8.15098 6.94948 8.15669C6.96209 8.1624 6.97577 8.16536 6.98962 8.16536C7.00346 8.16536 7.01714 8.1624 7.02975 8.15669C7.04236 8.15098 7.0536 8.14263 7.06272 8.13223L10.3989 4.33994C10.4604 4.26661 10.536 4.20632 10.6211 4.16261C10.7063 4.1189 10.7993 4.09266 10.8948 4.08543C10.9903 4.07819 11.0862 4.09012 11.177 4.12049C11.2678 4.15087 11.3515 4.19908 11.4234 4.2623C11.4953 4.32553 11.5538 4.40248 11.5955 4.48864C11.6373 4.5748 11.6613 4.66843 11.6663 4.76403C11.6713 4.85963 11.6572 4.95526 11.6247 5.04531C11.5922 5.13536 11.5421 5.21801 11.4772 5.2884L7.66314 9.62355C7.57894 9.71925 7.47533 9.79593 7.3592 9.84849C7.24307 9.90106 7.11709 9.92831 6.98962 9.92843Z" fill="#6F7B8D"/>
</svg>
